<?xml version="1.0" encoding="UTF-8"?>
<svg xmlns="http://www.w3.org/2000/svg" xmlns:xlink="http://www.w3.org/1999/xlink" width="133px" height="133px" viewBox="0 0 133 133" version="1.1">
<g id="surface1">
<path style=" stroke:none;fill-rule:nonzero;fill:rgb(0%,0%,100%);fill-opacity:1;" d="M 69.53125 12.4375 C 71.644531 12.613281 73.695312 12.910156 75.773438 13.347656 C 76.054688 13.40625 76.332031 13.464844 76.621094 13.527344 C 77.519531 13.710938 78.417969 13.902344 79.316406 14.09375 C 79.777344 14.191406 79.777344 14.191406 80.246094 14.289062 C 97.679688 17.984375 97.679688 17.984375 99.511719 20.730469 C 100.007812 23.886719 98.808594 26.386719 97.019531 28.90625 C 95.390625 31.042969 93.722656 33.019531 91.664062 34.753906 C 91.078125 35.253906 90.5 35.757812 89.921875 36.269531 C 86.214844 39.550781 82.257812 42.425781 77.824219 44.652344 C 77.675781 48.855469 77.921875 53.019531 78.242188 57.210938 C 78.261719 57.46875 78.277344 57.730469 78.296875 57.996094 C 78.582031 63.636719 78.582031 63.636719 80.375 68.890625 C 80.5625 68.71875 80.753906 68.542969 80.949219 68.363281 C 82.34375 67.09375 83.75 65.851562 85.21875 64.667969 C 86.847656 63.347656 88.433594 61.984375 90.015625 60.605469 C 91.21875 59.554688 92.433594 58.511719 93.652344 57.480469 C 97.410156 54.289062 100.921875 50.972656 102.699219 46.246094 C 102.644531 45.007812 102.320312 44.515625 101.425781 43.695312 C 101.425781 43.484375 101.425781 43.273438 101.425781 43.058594 C 104.855469 42.777344 108.851562 43.882812 111.628906 45.929688 C 112.53125 46.785156 112.871094 47.1875 113.003906 48.425781 C 112.742188 51.175781 109.984375 53.417969 108 55.125 C 107.167969 55.8125 106.332031 56.492188 105.492188 57.171875 C 104.078125 58.3125 102.746094 59.515625 101.425781 60.757812 C 99.859375 62.230469 98.265625 63.625 96.585938 64.964844 C 95.921875 65.507812 95.273438 66.058594 94.628906 66.628906 C 89.621094 71.058594 83.714844 75.328125 76.6875 74.914062 C 74.464844 74.707031 73.273438 73.695312 71.824219 72.0625 C 71.570312 71.78125 71.316406 71.5 71.058594 71.214844 C 70.488281 70.488281 70.488281 70.488281 70.488281 69.847656 C 70.273438 69.949219 70.058594 70.046875 69.839844 70.148438 C 64.300781 72.699219 58.726562 74.917969 52.945312 76.867188 C 52.515625 77.011719 52.515625 77.011719 52.078125 77.160156 C 34.328125 83.199219 34.328125 83.199219 27.109375 80.054688 C 24.945312 78.910156 23.179688 77.015625 22.238281 74.746094 C 21.714844 73.035156 21.621094 71.230469 21.46875 69.457031 C 21.449219 69.230469 21.425781 69.003906 21.40625 68.773438 C 20.820312 62.109375 20.996094 55.425781 21.082031 48.746094 C 21.105469 46.960938 21.125 45.175781 21.132812 43.386719 C 21.140625 42.566406 21.15625 41.746094 21.171875 40.925781 C 21.210938 37.03125 20.761719 33.707031 18.164062 30.613281 C 17.199219 29.632812 16.136719 28.828125 14.992188 28.066406 C 15.09375 27.644531 15.199219 27.226562 15.308594 26.792969 C 18.914062 26.492188 22.101562 28.066406 24.878906 30.300781 C 28.40625 33.425781 29.429688 39.210938 29.980469 43.695312 C 30.003906 44.429688 30.011719 45.164062 30.007812 45.898438 C 30.007812 46.105469 30.003906 46.3125 30.003906 46.527344 C 30 46.976562 30 47.421875 29.996094 47.871094 C 29.988281 48.585938 29.984375 49.304688 29.984375 50.019531 C 29.976562 52.054688 29.964844 54.089844 29.949219 56.125 C 29.851562 66.128906 29.851562 66.128906 31.386719 75.988281 C 31.574219 76.867188 31.574219 76.867188 31.574219 78.140625 C 36.398438 78.121094 41.058594 76.300781 45.570312 74.753906 C 45.957031 74.621094 45.957031 74.621094 46.355469 74.484375 C 47.921875 73.933594 49.296875 73.265625 50.710938 72.402344 C 50.621094 72.132812 50.621094 72.132812 50.523438 71.859375 C 49.765625 69.519531 49.414062 67.183594 49.117188 64.746094 C 48.8125 64.898438 48.511719 65.050781 48.199219 65.210938 C 46.652344 65.976562 45.101562 66.304688 43.375 66.023438 C 43.191406 65.867188 43.003906 65.710938 42.816406 65.546875 C 41.796875 64.859375 40.796875 64.921875 39.609375 64.90625 C 37.527344 64.878906 35.679688 64.703125 34.128906 63.152344 C 34.0625 62.386719 34.046875 61.664062 34.058594 60.902344 C 34.058594 60.65625 34.0625 60.40625 34.0625 60.152344 C 34.121094 55.949219 34.363281 51.75 34.570312 47.554688 C 34.628906 46.359375 34.6875 45.167969 34.742188 43.972656 C 34.855469 41.648438 34.96875 39.324219 35.082031 36.996094 C 37.746094 37.332031 38.882812 38.296875 40.527344 40.382812 C 42.101562 42.574219 42.101562 42.574219 42.101562 43.375 C 44.550781 42.945312 44.550781 42.945312 46.886719 42.101562 C 46.679688 42.039062 46.476562 41.976562 46.269531 41.914062 C 46.003906 41.832031 45.742188 41.746094 45.46875 41.664062 C 45.207031 41.582031 44.945312 41.5 44.671875 41.414062 C 44.015625 41.144531 44.015625 41.144531 43.695312 40.507812 C 43.664062 39.867188 43.652344 39.230469 43.65625 38.59375 C 43.65625 38.285156 43.65625 38.285156 43.65625 37.972656 C 43.664062 36.5625 43.722656 35.160156 43.800781 33.75 C 44.054688 29.113281 43.847656 25.167969 42.722656 20.660156 C 42.621094 20.261719 42.523438 19.863281 42.417969 19.457031 C 42.085938 19.4375 41.75 19.421875 41.40625 19.402344 C 40.164062 19.335938 38.925781 19.269531 37.683594 19.199219 C 37.148438 19.171875 36.609375 19.144531 36.074219 19.113281 C 35.304688 19.074219 34.53125 19.03125 33.761719 18.988281 C 33.519531 18.976562 33.277344 18.964844 33.03125 18.949219 C 31.328125 18.855469 31.328125 18.855469 30.617188 18.5 C 30.777344 18.023438 30.777344 18.023438 30.9375 17.542969 C 33.050781 16.546875 35.269531 16.203125 37.558594 15.816406 C 37.949219 15.75 38.335938 15.679688 38.738281 15.609375 C 39.558594 15.46875 40.382812 15.324219 41.203125 15.183594 C 42.449219 14.972656 43.695312 14.753906 44.9375 14.539062 C 45.742188 14.398438 46.542969 14.261719 47.347656 14.121094 C 47.710938 14.058594 48.078125 13.996094 48.457031 13.929688 C 57.144531 12.445312 57.144531 12.445312 59.003906 13.078125 C 59.980469 13.894531 59.980469 13.894531 60.597656 14.671875 C 57.074219 17.722656 51.316406 17.976562 46.886719 18.816406 C 47.011719 19.046875 47.136719 19.277344 47.269531 19.515625 C 49.898438 24.308594 52.367188 29.257812 52.339844 34.851562 C 52.335938 35.402344 52.335938 35.402344 52.335938 35.96875 C 52.332031 36.535156 52.332031 36.535156 52.328125 37.117188 C 52.324219 37.503906 52.324219 37.890625 52.324219 38.289062 C 52.320312 39.242188 52.3125 40.191406 52.308594 41.144531 C 52.640625 41.054688 52.976562 40.96875 53.324219 40.875 C 58.054688 39.644531 58.054688 39.644531 60.28125 39.550781 C 60.578125 39.53125 60.871094 39.515625 61.175781 39.5 C 64.121094 39.40625 64.121094 39.40625 65.382812 40.507812 C 66.140625 41.640625 66.167969 42.035156 66.023438 43.375 C 65.65625 44.210938 65.285156 44.949219 64.824219 45.730469 C 64.699219 45.949219 64.570312 46.167969 64.441406 46.394531 C 62.9375 48.941406 61.152344 51.265625 59.324219 53.582031 C 59.117188 53.84375 59.117188 53.84375 58.910156 54.109375 C 56.976562 56.566406 56.976562 56.566406 56.453125 57.089844 C 56.449219 59.441406 57.105469 61.558594 57.886719 63.75 C 58.089844 64.332031 58.292969 64.917969 58.496094 65.5 C 58.585938 65.753906 58.675781 66.007812 58.769531 66.269531 C 58.988281 66.925781 59.164062 67.582031 59.324219 68.253906 C 59.628906 68.140625 59.933594 68.023438 60.246094 67.90625 C 63.367188 66.769531 65.90625 66.300781 69.210938 66.976562 C 69.175781 66.601562 69.136719 66.222656 69.097656 65.835938 C 68.960938 64.40625 68.820312 62.980469 68.683594 61.554688 C 68.625 60.941406 68.566406 60.328125 68.503906 59.714844 C 67.339844 47.820312 67.222656 35.917969 67.367188 23.972656 C 67.378906 23.261719 67.382812 22.550781 67.390625 21.839844 C 67.398438 20.714844 67.414062 19.589844 67.433594 18.464844 C 67.441406 17.839844 67.445312 17.21875 67.449219 16.597656 C 67.457031 16.226562 67.464844 15.855469 67.472656 15.472656 C 67.480469 14.984375 67.480469 14.984375 67.488281 14.484375 C 67.53125 14.230469 67.574219 13.976562 67.617188 13.714844 C 68.574219 13.078125 68.574219 13.078125 69.53125 13.078125 C 69.53125 12.867188 69.53125 12.65625 69.53125 12.4375 Z M 71.761719 14.992188 C 71.941406 15.371094 71.941406 15.371094 72.125 15.757812 C 75.285156 22.957031 75.824219 31.183594 76.867188 38.910156 C 78.628906 37.785156 80.257812 36.628906 81.769531 35.183594 C 82.03125 34.9375 82.03125 34.9375 82.296875 34.6875 C 82.828125 34.183594 83.355469 33.675781 83.882812 33.171875 C 84.128906 32.9375 84.128906 32.9375 84.378906 32.699219 C 87.214844 30.011719 90.011719 27.148438 90.359375 23.082031 C 89.582031 21.078125 87.648438 20.5 85.78125 19.648438 C 82.335938 18.203125 78.769531 17.070312 75.230469 15.902344 C 74.90625 15.792969 74.585938 15.6875 74.253906 15.578125 C 73.425781 15.328125 72.613281 15.144531 71.761719 14.992188 Z M 55.164062 44.449219 C 54.765625 44.546875 54.371094 44.648438 53.964844 44.75 C 53.546875 44.855469 53.125 44.964844 52.707031 45.070312 C 49.597656 45.867188 46.558594 46.496094 43.375 46.886719 C 43.378906 47.164062 43.378906 47.445312 43.382812 47.734375 C 43.433594 58.039062 43.433594 58.039062 43.058594 62.511719 C 44.203125 62.039062 44.84375 61.390625 45.648438 60.460938 C 45.867188 60.210938 46.085938 59.960938 46.308594 59.703125 C 47.226562 58.589844 47.605469 57.984375 47.5625 56.554688 C 47.554688 56.167969 47.554688 56.167969 47.546875 55.773438 C 47.539062 55.574219 47.53125 55.378906 47.523438 55.175781 C 47.746094 55.105469 47.972656 55.035156 48.203125 54.960938 C 49.304688 54.453125 50.101562 53.75 50.972656 52.925781 C 51.140625 52.769531 51.304688 52.609375 51.480469 52.449219 C 54.078125 49.980469 56.015625 47.5 57.730469 44.332031 C 56.78125 43.859375 56.179688 44.1875 55.164062 44.449219 Z M 55.164062 44.449219 "/>
<path style=" stroke:none;fill-rule:nonzero;fill:rgb(0%,0%,100%);fill-opacity:1;" d="M 83.878906 89.148438 C 87.332031 92.234375 89.425781 97.355469 89.6875 101.917969 C 89.695312 102.492188 89.695312 102.492188 89.703125 103.078125 C 89.710938 103.464844 89.71875 103.851562 89.726562 104.25 C 89.625 105.25 89.625 105.25 89.199219 105.847656 C 87.933594 106.707031 86.550781 106.597656 85.078125 106.605469 C 84.84375 106.613281 84.605469 106.621094 84.363281 106.628906 C 82.695312 106.640625 81.488281 106.464844 80.054688 105.570312 C 79.664062 104.71875 79.464844 104.132812 79.296875 103.238281 C 79.222656 102.898438 79.222656 102.898438 79.144531 102.550781 C 78.839844 101.085938 78.703125 99.652344 78.640625 98.15625 C 78.539062 95.910156 77.824219 94.183594 76.867188 92.175781 C 76.707031 91.703125 76.707031 91.703125 76.546875 91.21875 C 75.742188 91.332031 75.363281 91.433594 74.816406 92.054688 C 72.789062 95.503906 71.410156 99.273438 69.929688 102.980469 C 69.777344 103.359375 69.625 103.738281 69.46875 104.128906 C 69.171875 104.875 68.875 105.617188 68.582031 106.363281 C 66.328125 111.992188 66.328125 111.992188 64.746094 112.988281 C 62.652344 113.769531 59.773438 113.429688 57.730469 112.585938 C 56.914062 111.964844 56.785156 111.671875 56.453125 110.675781 C 56.425781 109.929688 56.410156 109.1875 56.394531 108.441406 C 56.144531 102.714844 54.941406 95.214844 51.371094 90.539062 C 50.710938 89.625 50.710938 89.625 50.773438 88.6875 C 50.859375 88.46875 50.941406 88.253906 51.03125 88.027344 C 53.578125 87.8125 55.5 88.699219 57.449219 90.320312 C 60.722656 93.390625 62.722656 97.328125 64.425781 101.425781 C 64.65625 101.101562 64.882812 100.773438 65.117188 100.441406 C 66.160156 98.957031 67.207031 97.480469 68.253906 96.003906 C 68.433594 95.746094 68.617188 95.492188 68.800781 95.226562 C 73.890625 88.042969 73.890625 88.042969 75.828125 86.851562 C 78.765625 86.570312 81.550781 87.375 83.878906 89.148438 Z M 83.878906 89.148438 "/>
<path style=" stroke:none;fill-rule:nonzero;fill:rgb(0%,0%,100%);fill-opacity:1;" d="M 96.960938 83.882812 C 100.660156 85.203125 102.695312 88.316406 104.371094 91.699219 C 105.34375 93.78125 106.082031 95.863281 106.707031 98.074219 C 106.800781 98.40625 106.894531 98.734375 106.992188 99.074219 C 108.3125 103.765625 109.445312 108.515625 109.476562 113.40625 C 109.484375 113.667969 109.492188 113.929688 109.496094 114.203125 C 109.507812 115.820312 109.34375 116.925781 108.441406 118.328125 C 107.214844 119.34375 105.863281 119.644531 104.296875 119.605469 C 102.328125 119.308594 100.519531 118.609375 99.089844 117.195312 C 98.410156 116.203125 98.335938 115.464844 98.207031 114.269531 C 98.160156 113.839844 98.109375 113.410156 98.0625 112.976562 C 98.039062 112.753906 98.015625 112.53125 97.988281 112.304688 C 97.871094 111.21875 97.726562 110.136719 97.582031 109.054688 C 97.554688 108.835938 97.527344 108.617188 97.496094 108.390625 C 96.851562 103.507812 96.09375 98.664062 95.144531 93.828125 C 95.097656 93.585938 95.050781 93.339844 95 93.085938 C 94.449219 90.253906 94.449219 90.253906 93.742188 87.457031 C 93.476562 86.527344 93.382812 85.820312 93.410156 84.859375 C 93.417969 84.613281 93.421875 84.367188 93.429688 84.113281 C 93.4375 83.933594 93.441406 83.75 93.449219 83.5625 C 94.585938 82.996094 95.789062 83.539062 96.960938 83.882812 Z M 96.960938 83.882812 "/>
<path style=" stroke:none;fill-rule:nonzero;fill:rgb(0%,0%,100%);fill-opacity:1;" d="M 30.988281 86.671875 C 33.546875 86.933594 35.589844 87.746094 37.375 89.644531 C 40.152344 93.191406 41.328125 97.308594 41.285156 101.742188 C 41.28125 102.089844 41.277344 102.441406 41.277344 102.796875 C 41.203125 106.507812 40.761719 112.96875 37.953125 115.777344 C 32.550781 116.097656 32.550781 116.097656 30.617188 115.140625 C 29.585938 114.195312 29.355469 113.722656 29.265625 112.308594 C 29.296875 111.824219 29.335938 111.339844 29.382812 110.851562 C 29.402344 110.589844 29.421875 110.324219 29.441406 110.050781 C 29.546875 108.632812 29.6875 107.21875 29.828125 105.804688 C 30.148438 102.625 30.367188 99.480469 30.378906 96.28125 C 30.382812 95.960938 30.386719 95.640625 30.386719 95.308594 C 30.378906 92.738281 30.160156 90.160156 29.34375 87.710938 C 29.875 87.050781 30.132812 86.773438 30.988281 86.671875 Z M 30.988281 86.671875 "/>
</g>
</svg>
