<?xml version="1.0" encoding="UTF-8"?>
<svg xmlns="http://www.w3.org/2000/svg" xmlns:xlink="http://www.w3.org/1999/xlink" width="133px" height="133px" viewBox="0 0 133 133" version="1.1">
<defs>
<filter id="alpha" filterUnits="objectBoundingBox" x="0%" y="0%" width="100%" height="100%">
  <feColorMatrix type="matrix" in="SourceGraphic" values="0 0 0 0 1 0 0 0 0 1 0 0 0 0 1 0 0 0 1 0"/>
</filter>
<mask id="mask0">
  <g filter="url(#alpha)">
<rect x="0" y="0" width="133" height="133" style="fill:rgb(0%,0%,0%);fill-opacity:0.996078;stroke:none;"/>
  </g>
</mask>
<clipPath id="clip1">
  <rect x="0" y="0" width="133" height="133"/>
</clipPath>
<g id="surface5" clip-path="url(#clip1)">
<path style=" stroke:none;fill-rule:evenodd;fill:rgb(0%,0%,100%);fill-opacity:1;" d="M 71.824219 11.484375 C 72.5 11.566406 73.171875 11.671875 73.84375 11.800781 C 78.835938 12.734375 83.816406 13.71875 88.789062 14.757812 C 91.566406 15.335938 94.320312 16.015625 97.046875 16.796875 C 98.625 17.253906 100.164062 17.808594 101.667969 18.464844 C 102.324219 18.761719 102.949219 19.105469 103.542969 19.496094 C 104.199219 20.179688 104.492188 20.996094 104.425781 21.949219 C 104.183594 23.394531 103.714844 24.765625 103.015625 26.054688 C 102.230469 27.488281 101.308594 28.824219 100.25 30.066406 C 98.613281 31.949219 96.84375 33.6875 94.933594 35.285156 C 92.449219 37.402344 89.875 39.40625 87.214844 41.292969 C 85.265625 42.65625 83.222656 43.882812 81.09375 44.972656 C 80.832031 45.105469 80.566406 45.222656 80.296875 45.328125 C 80.125 45.449219 79.988281 45.601562 79.882812 45.785156 C 79.921875 47.308594 79.992188 48.835938 80.09375 50.359375 C 80.324219 54.074219 80.582031 57.789062 80.871094 61.503906 C 81.03125 63.476562 81.28125 65.441406 81.621094 67.390625 C 81.824219 68.5625 82.128906 69.703125 82.535156 70.816406 C 82.691406 71.226562 82.898438 71.605469 83.15625 71.953125 C 83.214844 71.9375 83.269531 71.90625 83.320312 71.859375 C 88.277344 67.710938 93.265625 63.605469 98.289062 59.542969 C 100.175781 57.992188 101.972656 56.332031 103.675781 54.558594 C 104.894531 53.265625 105.980469 51.875 106.933594 50.382812 C 107.589844 49.332031 108.097656 48.214844 108.460938 47.027344 C 108.558594 46.703125 108.621094 46.375 108.648438 46.042969 C 108.007812 45.359375 107.355469 44.6875 106.6875 44.023438 C 107.445312 43.984375 108.195312 44.027344 108.941406 44.152344 C 111.132812 44.53125 113.269531 45.117188 115.34375 45.914062 C 116.222656 46.261719 117.027344 46.722656 117.761719 47.296875 C 118.332031 47.757812 118.757812 48.324219 119.039062 49 C 119.121094 49.1875 119.167969 49.382812 119.179688 49.585938 C 119.03125 50.148438 118.804688 50.683594 118.5 51.179688 C 118.007812 51.953125 117.445312 52.671875 116.8125 53.339844 C 116.164062 54.019531 115.488281 54.664062 114.78125 55.273438 C 112.519531 57.21875 110.21875 59.117188 107.886719 60.976562 C 105.582031 63.0625 103.238281 65.097656 100.847656 67.074219 C 98.792969 68.757812 96.722656 70.417969 94.628906 72.046875 C 92.753906 73.4375 90.742188 74.617188 88.601562 75.589844 C 86.316406 76.605469 83.933594 77.242188 81.445312 77.492188 C 80.144531 77.585938 78.863281 77.476562 77.597656 77.164062 C 76.816406 76.972656 76.148438 76.59375 75.589844 76.023438 C 74.503906 74.640625 73.34375 73.308594 72.117188 72.035156 C 68.773438 73.667969 65.359375 75.144531 61.878906 76.460938 C 57.605469 78.070312 53.28125 79.535156 48.90625 80.847656 C 45.609375 81.816406 42.269531 82.605469 38.886719 83.214844 C 36.128906 83.710938 33.347656 84 30.546875 84.070312 C 28.707031 84.101562 26.9375 83.777344 25.230469 83.097656 C 23.070312 82.15625 21.390625 80.664062 20.199219 78.628906 C 19.925781 78.164062 19.691406 77.675781 19.496094 77.175781 C 18.003906 65.453125 17.652344 53.699219 18.441406 41.914062 C 19.183594 36.191406 17.25 31.636719 12.632812 28.246094 C 12.179688 28.242188 11.863281 28.035156 11.683594 27.625 C 11.660156 27.390625 11.695312 27.164062 11.789062 26.945312 C 12.074219 26.746094 12.390625 26.644531 12.738281 26.640625 C 13.972656 26.707031 15.164062 26.960938 16.316406 27.402344 C 17.300781 27.773438 18.261719 28.195312 19.203125 28.667969 C 20.605469 29.414062 21.875 30.339844 23.015625 31.449219 C 24.371094 33.375 25.402344 35.472656 26.113281 37.738281 C 26.832031 40.082031 27.308594 42.472656 27.542969 44.914062 C 27.78125 47.375 27.859375 49.835938 27.777344 52.304688 C 27.671875 54.457031 27.5625 56.609375 27.449219 58.757812 C 27.289062 62.539062 27.351562 66.316406 27.636719 70.089844 C 27.863281 73.023438 28.300781 75.925781 28.949219 78.792969 C 29.152344 79.652344 29.378906 80.503906 29.632812 81.351562 C 30.21875 81.558594 30.824219 81.640625 31.449219 81.597656 C 32.800781 81.441406 34.140625 81.199219 35.460938 80.871094 C 38.730469 80.042969 41.960938 79.082031 45.152344 77.984375 C 46.574219 77.496094 47.972656 76.949219 49.351562 76.34375 C 50.042969 76.03125 50.691406 75.65625 51.296875 75.214844 C 51.425781 75.097656 51.542969 74.96875 51.648438 74.828125 C 51.53125 74.742188 51.398438 74.699219 51.25 74.699219 C 50.886719 74.300781 50.613281 73.84375 50.441406 73.328125 C 50.132812 72.390625 49.9375 71.425781 49.855469 70.441406 C 49.699219 69.011719 49.582031 67.582031 49.515625 66.148438 C 47.753906 67.488281 45.757812 68.15625 43.53125 68.152344 C 42.933594 68.054688 42.457031 67.757812 42.101562 67.261719 C 41.21875 66.828125 40.296875 66.703125 39.332031 66.886719 C 37.738281 66.933594 36.167969 66.769531 34.617188 66.394531 C 33.96875 66.226562 33.425781 65.894531 32.984375 65.398438 C 32.730469 65.058594 32.578125 64.671875 32.527344 64.246094 C 32.980469 55.359375 33.378906 46.464844 33.726562 37.574219 C 34.332031 37.542969 34.910156 37.65625 35.460938 37.914062 C 36.257812 38.292969 36.96875 38.796875 37.597656 39.414062 C 38.761719 40.578125 39.765625 41.867188 40.609375 43.273438 C 40.835938 43.664062 41.027344 44.070312 41.1875 44.492188 C 41.433594 44.5 41.679688 44.507812 41.925781 44.515625 C 42.203125 44.519531 42.480469 44.507812 42.757812 44.480469 C 44.464844 44.007812 46.128906 43.421875 47.753906 42.722656 C 46.40625 42.375 45.050781 42.039062 43.695312 41.714844 C 43.398438 41.21875 43.21875 40.683594 43.15625 40.105469 C 43.335938 35.824219 43.515625 31.542969 43.695312 27.261719 C 43.34375 24.140625 42.679688 21.085938 41.703125 18.101562 C 39.710938 18.066406 37.722656 18.074219 35.730469 18.125 C 33.921875 18.113281 32.121094 18.015625 30.324219 17.832031 C 29.90625 17.792969 29.492188 17.738281 29.078125 17.667969 C 29.023438 17.628906 28.96875 17.585938 28.914062 17.546875 C 28.808594 17.480469 28.796875 17.398438 28.878906 17.300781 C 29.101562 17.054688 29.363281 16.863281 29.667969 16.726562 C 30.257812 16.46875 30.867188 16.265625 31.496094 16.117188 C 31.933594 16.015625 32.371094 15.921875 32.808594 15.835938 C 35.058594 15.433594 37.320312 15.105469 39.589844 14.851562 C 45.425781 13.597656 51.304688 12.621094 57.234375 11.917969 C 58.25 11.855469 59.203125 12.066406 60.09375 12.550781 C 60.542969 12.828125 60.933594 13.171875 61.269531 13.582031 C 61.0625 13.84375 60.820312 14.0625 60.539062 14.242188 C 59.8125 14.652344 59.042969 14.980469 58.242188 15.226562 C 56.546875 15.742188 54.824219 16.167969 53.082031 16.492188 C 50.9375 16.941406 48.789062 17.339844 46.628906 17.691406 C 46.238281 17.746094 45.847656 17.796875 45.457031 17.832031 C 51.101562 24.988281 53.324219 33.109375 52.117188 42.195312 C 56.03125 41.027344 60.027344 40.414062 64.105469 40.351562 C 65.785156 40.535156 66.917969 41.414062 67.507812 42.992188 C 67.265625 43.859375 66.925781 44.6875 66.488281 45.480469 C 65.765625 46.769531 64.984375 48.019531 64.140625 49.234375 C 62.152344 52.050781 60.0625 54.792969 57.878906 57.46875 C 57.386719 58.054688 56.875 58.625 56.339844 59.179688 C 57.109375 63.265625 58.390625 67.183594 60.175781 70.933594 C 60.191406 70.945312 60.207031 70.953125 60.222656 70.957031 C 62.277344 70.511719 64.269531 69.871094 66.195312 69.035156 C 67.945312 69.207031 69.699219 69.378906 71.449219 69.550781 C 70.027344 58.203125 69.316406 46.8125 69.316406 35.378906 C 69.394531 28.816406 69.449219 22.257812 69.480469 15.695312 C 69.476562 15.152344 69.472656 14.609375 69.46875 14.066406 C 69.285156 12.785156 69.835938 12.195312 71.121094 12.292969 C 71.894531 12.558594 72.5625 12.984375 73.128906 13.570312 C 73.839844 14.347656 74.417969 15.214844 74.863281 16.175781 C 75.625 17.84375 76.203125 19.570312 76.601562 21.359375 C 76.882812 22.589844 77.125 23.824219 77.328125 25.066406 C 78.011719 28.96875 78.589844 32.886719 79.0625 36.820312 C 79.171875 37.835938 79.265625 38.855469 79.34375 39.871094 C 81.242188 38.632812 83.050781 37.273438 84.777344 35.800781 C 86.53125 34.304688 88.226562 32.726562 89.855469 31.074219 C 90.933594 29.925781 91.894531 28.691406 92.742188 27.367188 C 93.511719 26.128906 94.066406 24.800781 94.40625 23.378906 C 94.480469 23.046875 94.539062 22.707031 94.582031 22.371094 C 94.578125 22.3125 94.558594 22.257812 94.523438 22.207031 C 94.195312 21.734375 93.796875 21.324219 93.339844 20.972656 C 92.574219 20.425781 91.757812 19.949219 90.898438 19.542969 C 88.777344 18.585938 86.59375 17.78125 84.355469 17.125 C 82.042969 16.484375 79.75 15.773438 77.480469 14.992188 C 76.121094 14.519531 74.800781 13.964844 73.515625 13.324219 C 73.039062 13.078125 72.585938 12.796875 72.152344 12.480469 C 71.949219 12.324219 71.757812 12.148438 71.578125 11.953125 C 71.535156 11.902344 71.5 11.84375 71.472656 11.777344 C 71.558594 11.640625 71.675781 11.542969 71.824219 11.484375 Z M 58.851562 44.5625 C 58.882812 44.558594 58.914062 44.5625 58.945312 44.574219 C 56.964844 48.453125 54.308594 51.800781 50.96875 54.617188 C 49.8125 55.566406 48.589844 56.433594 47.308594 57.210938 C 47.238281 57.601562 47.183594 57.996094 47.144531 58.394531 C 47.1875 58.808594 47.234375 59.222656 47.285156 59.636719 C 46.601562 60.785156 45.800781 61.84375 44.878906 62.816406 C 44.023438 63.707031 43.105469 64.527344 42.136719 65.28125 C 42.570312 61.6875 42.742188 58.085938 42.652344 54.464844 C 42.566406 52.265625 42.476562 50.070312 42.382812 47.871094 C 43.792969 47.832031 45.195312 47.679688 46.582031 47.414062 C 47.183594 47.304688 47.785156 47.1875 48.386719 47.0625 C 51.890625 46.273438 55.378906 45.441406 58.851562 44.5625 Z M 58.851562 44.5625 "/>
</g>
<mask id="mask1">
  <g filter="url(#alpha)">
<rect x="0" y="0" width="133" height="133" style="fill:rgb(0%,0%,0%);fill-opacity:0.996078;stroke:none;"/>
  </g>
</mask>
<clipPath id="clip2">
  <rect x="0" y="0" width="133" height="133"/>
</clipPath>
<g id="surface8" clip-path="url(#clip2)">
<path style=" stroke:none;fill-rule:evenodd;fill:rgb(0%,0%,100%);fill-opacity:1;" d="M 98.617188 86.957031 C 100.660156 87.140625 102.515625 87.824219 104.179688 89.011719 C 105.554688 90.035156 106.734375 91.253906 107.710938 92.660156 C 109.003906 94.578125 110.042969 96.636719 110.828125 98.828125 C 112.34375 103.1875 113.554688 107.628906 114.464844 112.15625 C 114.984375 114.753906 115.277344 117.378906 115.34375 120.027344 C 115.324219 121.144531 115.015625 122.171875 114.417969 123.109375 C 113.757812 123.992188 112.882812 124.558594 111.804688 124.8125 C 110.8125 125.082031 109.820312 125.097656 108.824219 124.859375 C 106.644531 124.359375 104.875 123.230469 103.507812 121.46875 C 102.609375 111.167969 100.9375 100.992188 98.488281 90.945312 C 98.117188 89.941406 97.878906 88.90625 97.773438 87.835938 C 97.863281 87.355469 98.144531 87.0625 98.617188 86.957031 Z M 98.617188 86.957031 "/>
</g>
<mask id="mask2">
  <g filter="url(#alpha)">
<rect x="0" y="0" width="133" height="133" style="fill:rgb(0%,0%,0%);fill-opacity:0.996078;stroke:none;"/>
  </g>
</mask>
<clipPath id="clip3">
  <rect x="0" y="0" width="133" height="133"/>
</clipPath>
<g id="surface11" clip-path="url(#clip3)">
<path style=" stroke:none;fill-rule:evenodd;fill:rgb(0%,0%,100%);fill-opacity:1;" d="M 28.703125 90.59375 C 31.566406 90.648438 33.941406 91.742188 35.824219 93.878906 C 36.492188 94.671875 37.070312 95.523438 37.5625 96.4375 C 38.414062 97.960938 39.078125 99.5625 39.554688 101.246094 C 40.058594 103.136719 40.246094 105.0625 40.117188 107.015625 C 39.953125 111.960938 38.757812 116.644531 36.539062 121.058594 C 34.675781 121.125 32.8125 121.054688 30.957031 120.847656 C 30.175781 120.78125 29.441406 120.5625 28.75 120.191406 C 27.960938 119.707031 27.492188 119.003906 27.34375 118.078125 C 27.878906 112.738281 28.367188 107.394531 28.808594 102.042969 C 28.898438 98.738281 28.59375 95.46875 27.894531 92.238281 C 27.792969 92.089844 27.691406 91.941406 27.589844 91.789062 C 27.550781 91.703125 27.515625 91.613281 27.484375 91.519531 C 27.726562 90.992188 28.132812 90.683594 28.703125 90.59375 Z M 28.703125 90.59375 "/>
</g>
<mask id="mask3">
  <g filter="url(#alpha)">
<rect x="0" y="0" width="133" height="133" style="fill:rgb(0%,0%,0%);fill-opacity:0.996078;stroke:none;"/>
  </g>
</mask>
<clipPath id="clip4">
  <rect x="0" y="0" width="133" height="133"/>
</clipPath>
<g id="surface14" clip-path="url(#clip4)">
<path style=" stroke:none;fill-rule:evenodd;fill:rgb(0%,0%,100%);fill-opacity:1;" d="M 79.566406 90.6875 C 83.15625 90.699219 86.121094 92.042969 88.472656 94.722656 C 89.382812 95.824219 90.164062 97.011719 90.816406 98.289062 C 91.949219 100.394531 92.730469 102.625 93.164062 104.976562 C 93.367188 106.289062 93.460938 107.613281 93.445312 108.941406 C 93.351562 109.609375 93.074219 110.183594 92.613281 110.664062 C 89.839844 111.703125 87.082031 111.679688 84.332031 110.59375 C 83.933594 110.425781 83.542969 110.234375 83.167969 110.019531 C 82.363281 107.453125 81.875 104.824219 81.703125 102.136719 C 81.738281 101.933594 81.773438 101.730469 81.808594 101.527344 C 81.824219 101.347656 81.824219 101.167969 81.808594 100.988281 C 81.671875 100.238281 81.460938 99.511719 81.175781 98.804688 C 80.800781 97.824219 80.355469 96.878906 79.835938 95.96875 C 79.613281 95.585938 79.335938 95.246094 79.003906 94.945312 C 78.847656 94.820312 78.675781 94.71875 78.488281 94.640625 C 78.441406 94.625 78.394531 94.625 78.347656 94.640625 C 78.117188 94.769531 77.90625 94.925781 77.714844 95.109375 C 77.097656 95.757812 76.558594 96.464844 76.105469 97.234375 C 75.175781 98.851562 74.351562 100.523438 73.644531 102.253906 C 72.753906 104.488281 71.871094 106.726562 70.992188 108.964844 C 70.105469 111.167969 69.109375 113.328125 68.011719 115.441406 C 67.589844 116.234375 67.113281 116.992188 66.582031 117.714844 C 65.777344 118.207031 64.902344 118.425781 63.953125 118.371094 C 62.882812 118.367188 61.816406 118.308594 60.753906 118.195312 C 58.148438 117.894531 56.984375 116.4375 57.269531 113.820312 C 57.304688 113.550781 57.339844 113.28125 57.375 113.011719 C 57.203125 111.097656 56.917969 109.203125 56.515625 107.320312 C 56.070312 105.148438 55.539062 103 54.921875 100.871094 C 54.386719 99.070312 53.683594 97.34375 52.8125 95.683594 C 52.511719 95.140625 52.179688 94.617188 51.8125 94.113281 C 51.292969 93.707031 50.933594 93.1875 50.734375 92.554688 C 50.984375 92.128906 51.355469 91.898438 51.847656 91.859375 C 54.464844 92.097656 56.710938 93.117188 58.59375 94.921875 C 59.214844 95.527344 59.78125 96.171875 60.292969 96.859375 C 62.136719 99.425781 63.695312 102.171875 64.964844 105.09375 C 65.203125 105.683594 65.429688 106.277344 65.644531 106.875 C 68.683594 102.644531 71.78125 98.453125 74.933594 94.300781 C 75.472656 93.609375 76.027344 92.925781 76.601562 92.261719 C 76.839844 92.007812 77.078125 91.75 77.316406 91.496094 C 78.003906 91.046875 78.753906 90.777344 79.566406 90.6875 Z M 79.566406 90.6875 "/>
</g>
</defs>
<g id="surface1">
<use xlink:href="#surface5" mask="url(#mask0)"/>
<use xlink:href="#surface8" mask="url(#mask1)"/>
<use xlink:href="#surface11" mask="url(#mask2)"/>
<use xlink:href="#surface14" mask="url(#mask3)"/>
</g>
</svg>
