<svg height="576pt" preserveAspectRatio="xMidYMid meet" viewBox="0 0 576 576" width="576pt" xmlns="http://www.w3.org/2000/svg"><g transform="matrix(.1 0 0 -.1 0 576)"><path d="m2335 4489c-280-38-423-97-556-229-60-59-85-93-118-163-35-71-48-88-69-93-156-35-214-69-299-177-113-142-155-227-192-391-37-158-45-257-45-501 0-275 5-300 79-429 37-66 45-88 45-131 0-181 86-342 231-431 47-29 70-54 114-120 31-46 77-107 103-136s78-90 115-134c73-90 120-119 168-109 27 6 34 2 67-36 329-384 655-558 1124-600 228-20 423 11 579 92 157 82 278 213 369 398 77 156 116 293 172 601 49 271 49 257-14 424-24 64-32 106-39 208l-10 129 37 50c96 131 110 311 31 387-18 16-43 33-57 37-42 13-50 25-50 81 0 63-21 157-55 248-14 36-25 71-25 76 0 44 85-66 154-199 25-49 52-93 58-97s18 2 26 12c11 15 13 45 9 154-9 223-57 378-169 543-79 116-204 178-477 237-97 21-110 26-185 83-100 74-255 150-361 177-159 41-587 63-760 39zm1051-965c42-9 96-30 134-52 73-42 275-233 268-253-3-8-23-17-45-21-22-3-74-18-115-32-67-23-89-26-225-26-128 0-158 3-197 20-110 47-293 64-371 34-22-9-75-26-117-39-102-30-126-47-151-106-26-60-46-61-66-2-14 40-14 44 11 95 36 75 44 101 67 210 25 122 40 145 94 152 74 9 350 36 407 40 89 5 230-4 306-20zm-663-439c-8-48 7-51 131-26 58 12 140 21 184 21 81 0 222-30 249-52 37-30-17-168-99-254-68-73-120-108-196-133-123-42-246-18-318 60-59 66-59 67-35 93l23 24-44 48c-40 44-43 50-41 100 1 29 9 67 18 84 19 37 69 70 107 70 25 0 26-2 21-35zm782 25c3-6 3-19 0-30-6-18-15-20-95-20-71 0-89 3-94 16-16 41-10 44 88 44 53 0 98-4 101-10zm674-4c52-27 66-61 66-161 0-82-3-97-33-158-31-62-58-85-66-54-2 6-18 62-36 123l-32 111 17 64c9 35 19 70 21 77 5 16 29 15 63-2zm-298-61c23-39 59-221 59-295 0-71 6-90 31-90 14 0 21 9 26 30 8 45 40 41 45-6 6-51-11-64-82-64-128 0-266 72-350 184-63 83-96 186-72 223 15 24 152 52 241 50 83-2 85-3 102-32zm-387-27c2-7 10-40 17-72 21-96 102-206 201-274 75-51 153-74 253-76l90-1 5-100c5-84 12-120 49-225l44-124-18-101c-69-392-107-538-180-690-107-224-266-359-489-415-100-25-348-28-491-5-320 52-569 186-811 438-125 130-208 243-326 441-46 77-89 145-96 153-8 7-36 13-65 13-114 0-214 45-290 130-63 70-90 143-90 246 0 90 25 161 83 234 61 77 221 151 271 126 47-23 121-132 202-296 44-91 86-168 91-172 15-10 78-10 95 1 8 5 30 95 56 227 25 126 59 262 79 319 20 55 36 101 36 103 0 1 8 2 19 2 10 0 30-15 45-34 38-50 107-116 122-116 26 0 24 21-11 86-19 37-35 71-35 76 0 19 27 6 65-32 23-23 68-52 100-65 50-20 66-33 100-82 101-144 261-178 442-94 124 58 247 211 260 323 8 70 5 68 93 68 56 0 82-4 84-12z"/><path d="m2995 2991c-45-20-70-60-70-112 0-42 5-53 33-81s39-33 82-33 54 5 82 33 33 39 33 82c0 42-5 54-31 81-33 33-92 46-129 30zm36-52c9-18 7-25-9-41s-23-18-41-9c-23 13-28 40-9 59s46 14 59-9z"/><path d="m3722 2983c-83-41-82-167 2-207 46-22 77-20 117 7 48 32 68 96 45 143-18 39-69 74-106 74-14 0-40-8-58-17zm42-39c11-28 7-43-15-54-15-9-24-8-35 1-14 12-19 51-7 62 12 13 51 7 57-9z"/><path d="m3480 2668c-38-63-18-122 85-250 88-109 109-150 102-205-6-53-42-108-84-128-37-18-116-19-179-4-38 10-48 9-61-3-39-39 42-78 163-78 98 0 167 44 210 135 48 101 27 169-101 332-82 104-93 129-75 173 26 62-25 85-60 28z"/><path d="m1535 2456c-14-22-14-31 9-116 28-105 50-136 90-126 46 11 50 36 21 144-15 53-32 103-37 110-18 21-66 14-83-12z"/><path d="m2904 1725c-11-27 4-42 68-73 272-127 609-121 728 15 35 40 36 66 1 71-15 3-34-6-55-27-17-16-53-40-81-53-45-20-65-23-190-23-161 0-262 22-385 85-47 24-78 26-86 5z"/></g></svg>