<?xml version="1.0" encoding="UTF-8"?>
<svg xmlns="http://www.w3.org/2000/svg" xmlns:xlink="http://www.w3.org/1999/xlink" width="24px" height="24px" viewBox="0 0 24 24" version="1.1">
<g id="surface1">
<path style=" stroke:none;fill-rule:nonzero;fill:rgb(0%,0%,0%);fill-opacity:1;" d="M 9.542969 5.320312 C 8.929688 5.421875 8.460938 5.558594 8.085938 5.757812 C 7.640625 5.992188 7.148438 6.484375 6.910156 6.933594 L 6.722656 7.285156 L 6.398438 7.382812 C 5.945312 7.523438 5.820312 7.59375 5.550781 7.882812 C 5.011719 8.457031 4.730469 9.015625 4.542969 9.890625 C 4.445312 10.335938 4.433594 10.507812 4.429688 11.675781 L 4.429688 12.96875 L 4.679688 13.457031 C 4.875 13.851562 4.921875 13.992188 4.921875 14.179688 C 4.921875 14.828125 5.277344 15.488281 5.835938 15.867188 C 6.007812 15.988281 6.203125 16.191406 6.394531 16.453125 C 6.554688 16.671875 6.875 17.078125 7.109375 17.347656 C 7.539062 17.84375 7.789062 18.03125 7.964844 17.976562 C 8.023438 17.957031 8.21875 18.121094 8.722656 18.625 C 9.429688 19.320312 9.871094 19.660156 10.5 19.972656 C 11.738281 20.59375 13.453125 20.8125 14.648438 20.507812 C 15.5625 20.273438 16.3125 19.644531 16.800781 18.703125 C 17.183594 17.96875 17.335938 17.46875 17.582031 16.117188 C 17.761719 15.148438 17.757812 14.925781 17.574219 14.429688 C 17.464844 14.136719 17.417969 13.898438 17.375 13.476562 L 17.324219 12.914062 L 17.476562 12.707031 C 17.6875 12.417969 17.8125 12.046875 17.8125 11.714844 C 17.8125 11.335938 17.695312 11.113281 17.414062 10.964844 C 17.183594 10.84375 17.175781 10.824219 17.136719 10.378906 C 17.125 10.222656 17.046875 9.910156 16.972656 9.679688 C 16.894531 9.449219 16.84375 9.253906 16.855469 9.238281 C 16.90625 9.1875 17.183594 9.558594 17.433594 10.007812 C 17.570312 10.25 17.699219 10.460938 17.71875 10.476562 C 17.738281 10.492188 17.78125 10.46875 17.8125 10.429688 C 17.890625 10.332031 17.84375 9.277344 17.742188 8.835938 C 17.648438 8.4375 17.363281 7.808594 17.125 7.492188 C 16.8125 7.0625 16.285156 6.800781 15.257812 6.558594 C 14.773438 6.445312 14.773438 6.445312 14.269531 6.113281 C 13.828125 5.816406 13.285156 5.5625 12.90625 5.464844 C 12.179688 5.28125 10.273438 5.199219 9.542969 5.320312 Z M 13.871094 9.28125 C 14.078125 9.308594 14.339844 9.382812 14.503906 9.464844 C 14.804688 9.605469 15.460938 10.148438 15.675781 10.429688 L 15.800781 10.59375 L 15.695312 10.636719 C 15.171875 10.832031 14.855469 10.894531 14.273438 10.914062 C 13.714844 10.925781 13.632812 10.917969 13.289062 10.804688 C 13.046875 10.726562 12.757812 10.671875 12.464844 10.65625 C 12.039062 10.632812 11.992188 10.636719 11.503906 10.800781 C 10.898438 11 10.808594 11.054688 10.6875 11.300781 C 10.578125 11.507812 10.527344 11.527344 10.453125 11.394531 C 10.378906 11.246094 10.398438 11.042969 10.519531 10.777344 C 10.585938 10.636719 10.679688 10.320312 10.734375 10.078125 C 10.828125 9.664062 10.921875 9.425781 11.007812 9.417969 C 11.023438 9.417969 11.386719 9.375 11.8125 9.328125 C 12.695312 9.234375 13.367188 9.214844 13.871094 9.28125 Z M 11.34375 11.15625 C 11.34375 11.324219 11.34375 11.324219 12.121094 11.222656 C 12.640625 11.148438 12.726562 11.148438 13.082031 11.21875 C 13.664062 11.324219 13.734375 11.359375 13.734375 11.539062 C 13.734375 11.960938 13.167969 12.679688 12.640625 12.917969 C 12.398438 13.03125 12.289062 13.054688 11.976562 13.054688 C 11.652344 13.054688 11.574219 13.035156 11.386719 12.929688 C 11.269531 12.859375 11.113281 12.726562 11.042969 12.632812 C 10.921875 12.476562 10.917969 12.453125 10.988281 12.378906 C 11.089844 12.265625 11.085938 12.25 10.894531 12.03125 C 10.734375 11.855469 10.726562 11.832031 10.75 11.601562 C 10.761719 11.464844 10.800781 11.316406 10.832031 11.265625 C 10.90625 11.136719 11.109375 11.019531 11.242188 11.015625 C 11.324219 11.015625 11.34375 11.039062 11.34375 11.15625 Z M 14.601562 11.0625 C 14.671875 11.179688 14.523438 11.25 14.203125 11.25 C 13.984375 11.25 13.871094 11.230469 13.828125 11.179688 C 13.730469 11.058594 13.828125 11.015625 14.203125 11.015625 C 14.410156 11.015625 14.585938 11.039062 14.601562 11.0625 Z M 17.507812 11.128906 C 17.644531 11.234375 17.648438 11.253906 17.664062 11.679688 C 17.675781 12.085938 17.667969 12.136719 17.546875 12.375 C 17.476562 12.515625 17.382812 12.632812 17.34375 12.632812 C 17.300781 12.632812 17.234375 12.488281 17.148438 12.1875 C 16.996094 11.667969 16.992188 11.605469 17.089844 11.269531 C 17.175781 10.972656 17.273438 10.941406 17.507812 11.128906 Z M 16.070312 11.230469 C 16.203125 11.273438 16.40625 12.042969 16.40625 12.515625 C 16.40625 12.640625 16.421875 12.773438 16.433594 12.816406 C 16.480469 12.9375 16.625 12.90625 16.660156 12.769531 C 16.703125 12.601562 16.800781 12.65625 16.820312 12.859375 C 16.832031 13.007812 16.820312 13.03125 16.710938 13.058594 C 16.335938 13.152344 15.675781 12.929688 15.273438 12.566406 C 15.015625 12.335938 14.71875 11.789062 14.71875 11.546875 C 14.71875 11.410156 14.742188 11.375 14.882812 11.316406 C 15.164062 11.199219 15.816406 11.152344 16.070312 11.230469 Z M 14.605469 11.632812 C 14.699219 12.007812 14.863281 12.296875 15.160156 12.589844 C 15.5625 12.992188 15.867188 13.128906 16.4375 13.167969 L 16.898438 13.195312 L 16.925781 13.617188 C 16.945312 13.921875 17 14.179688 17.128906 14.558594 L 17.304688 15.085938 L 17.15625 15.871094 C 16.953125 16.976562 16.804688 17.5625 16.59375 18.074219 C 16.175781 19.09375 15.5625 19.714844 14.671875 20.015625 C 14.25 20.160156 12.976562 20.203125 12.347656 20.089844 C 11.042969 19.867188 9.976562 19.273438 8.996094 18.242188 C 8.492188 17.714844 8.175781 17.289062 7.664062 16.453125 C 7.46875 16.128906 7.269531 15.839844 7.226562 15.804688 C 7.191406 15.777344 7.070312 15.75 6.960938 15.75 C 5.832031 15.75 5.078125 14.546875 5.558594 13.515625 C 5.742188 13.128906 6.230469 12.757812 6.660156 12.679688 C 6.957031 12.625 7.191406 12.898438 7.761719 13.992188 C 7.9375 14.324219 8.105469 14.617188 8.128906 14.632812 C 8.199219 14.679688 8.398438 14.679688 8.476562 14.632812 C 8.507812 14.609375 8.617188 14.207031 8.71875 13.730469 C 8.914062 12.8125 9.15625 11.976562 9.238281 11.925781 C 9.265625 11.910156 9.429688 12.03125 9.605469 12.207031 C 10.035156 12.636719 10.152344 12.609375 9.914062 12.140625 C 9.847656 12.015625 9.796875 11.898438 9.796875 11.882812 C 9.796875 11.820312 9.917969 11.875 10.0625 12 C 10.148438 12.078125 10.34375 12.203125 10.492188 12.277344 C 10.671875 12.375 10.820312 12.492188 10.949219 12.671875 C 11.089844 12.851562 11.222656 12.964844 11.410156 13.054688 C 11.640625 13.167969 11.710938 13.179688 12.03125 13.164062 C 12.652344 13.132812 13.175781 12.824219 13.542969 12.277344 C 13.71875 12.015625 13.78125 11.863281 13.851562 11.515625 C 13.878906 11.386719 13.878906 11.386719 14.210938 11.398438 L 14.550781 11.414062 Z M 14.605469 11.632812 "/>
<path style=" stroke:none;fill-rule:nonzero;fill:rgb(0%,0%,0%);fill-opacity:1;" d="M 12.332031 11.644531 C 12.261719 11.714844 12.214844 11.839844 12.203125 11.972656 C 12.179688 12.160156 12.191406 12.195312 12.320312 12.328125 C 12.4375 12.441406 12.5 12.46875 12.664062 12.46875 C 12.957031 12.46875 13.125 12.289062 13.125 11.992188 C 13.125 11.808594 13.101562 11.757812 12.980469 11.652344 C 12.78125 11.488281 12.484375 11.484375 12.332031 11.644531 Z M 12.609375 11.742188 C 12.699219 11.851562 12.539062 12.019531 12.417969 11.949219 C 12.3125 11.898438 12.304688 11.808594 12.382812 11.726562 C 12.460938 11.652344 12.539062 11.65625 12.609375 11.742188 Z M 12.609375 11.742188 "/>
<path style=" stroke:none;fill-rule:nonzero;fill:rgb(0%,0%,0%);fill-opacity:1;" d="M 15.585938 11.550781 C 15.359375 11.648438 15.257812 11.792969 15.261719 12.003906 C 15.273438 12.214844 15.375 12.355469 15.601562 12.453125 C 15.726562 12.507812 15.773438 12.507812 15.90625 12.449219 C 16.320312 12.277344 16.328125 11.722656 15.910156 11.550781 C 15.726562 11.476562 15.757812 11.476562 15.585938 11.550781 Z M 15.695312 11.785156 C 15.71875 11.90625 15.570312 12.019531 15.484375 11.949219 C 15.417969 11.890625 15.402344 11.757812 15.453125 11.699219 C 15.515625 11.640625 15.679688 11.695312 15.695312 11.785156 Z M 15.695312 11.785156 "/>
<path style=" stroke:none;fill-rule:nonzero;fill:rgb(0%,0%,0%);fill-opacity:1;" d="M 14.597656 12.789062 C 14.511719 12.84375 14.4375 13.015625 14.4375 13.15625 C 14.4375 13.316406 14.597656 13.601562 14.902344 13.988281 C 15.023438 14.140625 15.164062 14.339844 15.207031 14.421875 C 15.347656 14.699219 15.285156 14.992188 15.027344 15.230469 C 14.886719 15.359375 14.53125 15.40625 14.21875 15.335938 C 14.0625 15.304688 14 15.304688 13.9375 15.355469 C 13.855469 15.417969 13.855469 15.425781 13.960938 15.511719 C 14.089844 15.625 14.394531 15.675781 14.746094 15.648438 C 15.359375 15.59375 15.753906 14.867188 15.464844 14.320312 C 15.40625 14.21875 15.226562 13.945312 15.050781 13.710938 C 14.761719 13.316406 14.742188 13.28125 14.742188 13.035156 C 14.742188 12.789062 14.699219 12.71875 14.597656 12.789062 Z M 14.597656 12.789062 "/>
<path style=" stroke:none;fill-rule:nonzero;fill:rgb(0%,0%,0%);fill-opacity:1;" d="M 6.429688 13.742188 C 6.355469 13.820312 6.359375 13.996094 6.449219 14.300781 C 6.546875 14.640625 6.632812 14.765625 6.769531 14.765625 C 7.011719 14.765625 7.027344 14.601562 6.839844 13.988281 C 6.753906 13.714844 6.734375 13.6875 6.617188 13.6875 C 6.542969 13.6875 6.464844 13.710938 6.429688 13.742188 Z M 6.429688 13.742188 "/>
<path style=" stroke:none;fill-rule:nonzero;fill:rgb(0%,0%,0%);fill-opacity:1;" d="M 12.15625 16.765625 C 12.023438 16.8125 12.09375 16.96875 12.289062 17.066406 C 13.339844 17.601562 14.828125 17.621094 15.359375 17.101562 C 15.640625 16.828125 15.484375 16.648438 15.167969 16.894531 C 14.910156 17.085938 14.742188 17.152344 14.386719 17.179688 C 13.753906 17.234375 13.203125 17.140625 12.445312 16.84375 C 12.320312 16.789062 12.183594 16.757812 12.15625 16.765625 Z M 12.15625 16.765625 "/>
</g>
</svg>
